{"title":"Disappearing Acts 2000 DVDrip English Klam","uid":10478841,"size":2015921440,"categoryP":"video","categoryS":"movies","magnet":"?xt=urn:btih:f0526b0eb197ebab4c990894a029e023c8ed1c00&amp;dn=Disappearing+Acts+2000+DVDrip+English+Klam&amp;tr=udp%3A%2F%2Ftracker.openbittorrent.com%3A80&amp;tr=udp%3A%2F%2Fopen.demonii.com%3A1337&amp;tr=udp%3A%2F%2Ftracker.coppersurfer.tk%3A6969&amp;tr=udp%3A%2F%2Fexodus.desync.com%3A6969","seeders":2,"leechers":0,"uploader":"Klambake","files":-1,"time":1404383241,"description":"With: Sanaa Lathan, Wesley Snipes and Regina Hall\n\nFranklin (Wesley Snipes), een zojuist ontslagen arbeider probeert zijn twee kinderen op te voeden. De scheiding met zijn vrouw is nagenoeg definitief. Dan ontmoet hij Zora (Sanaa Lathan), die bij hem in de buurt komt wonen.\n\nA couple in the midst of a tumultuous relationship fight to stay together.\n &lt;a href=&quot;\nhttp://www.imdb.com/title/tt0243220&quot; rel=&quot;nofollow&quot; target=&quot;_NEW&quot;&gt;\nhttp://www.imdb.com/title/tt0243220&lt;/a&gt;\t\n\n--------------------- Dutch Friends 4ever ---------------------\n---------------------------------------------------------------\n- Bezoek ook eens mijn vrienden op: &lt;a href=&quot; http://www.Film-Test.nl&quot; rel=&quot;nofollow&quot; target=&quot;_NEW&quot;&gt; http://www.Film-Test.nl&lt;/a&gt; --\n----- voor mijn Nederlandse Sync. ondertitels ---- en meer ----\n------- http://www.Film-Test.nl ---- Over Films en meer -------\n---------------------------------------------------------------\n &lt;a href=&quot;\nhttp://i.imgur.com/TcsONFo.jpg&quot; rel=&quot;nofollow&quot; target=&quot;_NEW&quot;&gt;\nhttp://i.imgur.com/TcsONFo.jpg&lt;/a&gt; &lt;a href=&quot;\nhttp://i.imgur.com/lv1qaTg.jpg&quot; rel=&quot;nofollow&quot; target=&quot;_NEW&quot;&gt;\nhttp://i.imgur.com/lv1qaTg.jpg&lt;/a&gt; &lt;a href=&quot;\nhttp://i.imgur.com/U44pqh6.jpg&quot; rel=&quot;nofollow&quot; target=&quot;_NEW&quot;&gt;\nhttp://i.imgur.com/U44pqh6.jpg&lt;/a&gt;\n\nGeneral:\n\nComplete name                            : Disappearing ActsDisappearing Acts.avi\nFormat                                   : AVI\nFormat/Info                              : Audio Video Interleave\nFile size                                : 1.88 GiB\nDuration                                 : 1h 50mn\nOverall bit rate                         : 2 426 Kbps\n\nVideo:\n\nFormat                                   : MPEG-4 Visual\nFormat profile                           : Simple@L3\nFormat settings, BVOP                    : No\nFormat settings, QPel                    : No\nFormat settings, GMC                     : No warppoints\nFormat settings, Matrix                  : Default (H.263)\nCodec ID                                 : XVID\nCodec ID/Hint                            : XviD\nDuration                                 : 1h 50mn\nBit rate                                 : 1 967 Kbps\nWidth                                    : 704 pixels\nHeight                                   : 396 pixels\nDisplay aspect ratio                     : 16:9\nFrame rate                               : 25.000 fps\nColor space                              : YUV\nChroma subsampling                       : 4:2:0\nBit depth                                : 8 bits\nScan type                                : Progressive\nCompression mode                         : Lossy\nBits/(Pixel*Frame)                       : 0.282\nStream size                              : 1.52 GiB (81%)\nWriting library                          : XviD 1.1.2 (UTC 2006-11-01)\n\nAudio:\n\nFormat                                   : AC-3\nFormat/Info                              : Audio Coding 3\nMode extension                           : CM (complete main)\nFormat settings, Endianness              : Big\nCodec ID                                 : 2000\nDuration                                 : 1h 50mn\nSource duration                          : 1h 50mn\nBit rate mode                            : Constant\nBit rate                                 : 448 Kbps\nChannel(s)                               : 6 channels\nChannel positions                        : Front: L C R, Side: L R, LFE\nSampling rate                            : 48.0 KHz\nBit depth                                : 16 bits\nCompression mode                         : Lossy\nStream size                              : 355 MiB (18%)\nAlignment                                : Aligned on interleaves\nInterleave, duration                     : 32 ms (0.80 video frame)\nInterleave, preload duration             : 128 ms\n","torrent":{"xt":"urn:btih:f0526b0eb197ebab4c990894a029e023c8ed1c00","amp;dn":"Disappearing+Acts+2000+DVDrip+English+Klam","amp;tr":["udp%3A%2F%2Ftracker.openbittorrent.com%3A80","udp%3A%2F%2Fopen.demonii.com%3A1337","udp%3A%2F%2Ftracker.coppersurfer.tk%3A6969","udp%3A%2F%2Fexodus.desync.com%3A6969"],"infoHash":"f0526b0eb197ebab4c990894a029e023c8ed1c00","infoHashBuffer":{"type":"Buffer","data":[240,82,107,14,177,151,235,171,76,153,8,148,160,41,224,35,200,237,28,0]},"announce":[],"urlList":[]}}